# xmcd
#
# Track frame offsets: 
#        150
#        12408
#        26334
#        44694
#        54834
#        72798
#        90561
#        107423
#        119626
#        133366
#        148300
#        164186
#        175370
#        192740
#        206168
#        222662
#
# Disc length: 3173 seconds
#
# Revision: 0
# Processed by: cddbd v1.5.2PL0 Copyright (c) Steve Scherf et al.
# Submitted via: ExactAudioCopyFreeDBPlugin 1.0
#
DISCID=050c6310
DTITLE=Swamperella - OnThe Line
DYEAR=2007
DGENRE=Cajun
TTITLE0=Bayou Pon Pon
TTITLE1=Chere ici, Chere la bas
TTITLE2=Arrete pas la Musique
TTITLE3=Courville's Breakdown
TTITLE4=Tes Parents Veulent Plus Me Voir
TTITLE5=Same Old You
TTITLE6=Corrina Corrina
TTITLE7=The Frankenstein
TTITLE8=La Valse de Tout l'Monde
TTITLE9=Hip et Taiau
TTITLE10=Katrina
TTITLE11=Baby, Va t'en pas
TTITLE12=Sans Nom
TTITLE13=Valse Criminelle
TTITLE14=Paper in My Shoe
TTITLE15=Prends Courage
EXTD=
EXTT0=
EXTT1=
EXTT2=
EXTT3=
EXTT4=
EXTT5=
EXTT6=
EXTT7=
EXTT8=
EXTT9=
EXTT10=
EXTT11=
EXTT12=
EXTT13=
EXTT14=
EXTT15=
PLAYORDER=
